<svg width="420" height="422" viewBox="0 0 420 422" fill="none" xmlns="http://www.w3.org/2000/svg">
<path d="M200 212.056L56.9443 355.111L56.9443 283.584L128.473 212.056L56.9443 140.527L56.9443 69L200 212.056Z" fill="#15BB81"/>
<path d="M220 212.056L363.056 355.111V283.584L291.527 212.056L363.056 140.527L363.056 69L220 212.056Z" fill="#8ADDC0"/>
<path d="M210.056 200L67 56.9443L138.527 56.9443L210.056 128.473L281.584 56.9443L353.111 56.9443L210.056 200Z" fill="#15BB81"/>
<path d="M210.056 222L67 365.056H138.527L210.056 293.527L281.584 365.056L353.111 365.056L210.056 222Z" fill="#15BB81"/>
<path d="M57 155L114 212L57 269L0 212L57 155Z" fill="#FEFFFF"/>
<path d="M363 155L306 212L363 269L420 212L363 155Z" fill="#FEFFFF"/>
<path d="M267 57L210 114L153 57L210 0L267 57Z" fill="#FEFFFF"/>
<path d="M267 365L210 308L153 365L210 422L267 365Z" fill="#FEFFFF"/>
</svg>
