<svg width="475" height="355" viewBox="0 0 475 355" fill="none" xmlns="http://www.w3.org/2000/svg">
<path d="M279.703 162.806L237.472 204.144L195.24 162.806L237.472 121.467L279.703 162.806ZM347.904 126.351L288.293 68.001L356.295 0H474.256L347.904 126.351ZM186.405 66.6797L126.469 125.349L1.12012 0H119.726L186.405 66.6797Z" fill="white"/>
<path d="M176.48 296.803L118.284 355H0L132.319 222.68L176.48 296.803ZM473.136 355H354.853L296.788 296.936L340.95 222.813L473.136 355ZM279.703 162.806L237.472 204.144L195.24 162.806L237.472 121.467L279.703 162.806Z" fill="#15BB81"/>
<path d="M352.053 161.197L236.674 354.853L121.298 161.197L236.675 48.2598L352.053 161.197ZM163.79 162.806L237.473 234.93L311.154 162.806L237.473 90.6816L163.79 162.806Z" fill="#8ADDC0"/>
</svg>
