<svg width="475" height="355" viewBox="0 0 475 355" fill="none" xmlns="http://www.w3.org/2000/svg">
<path d="M279.704 162.806L237.473 204.144L195.241 162.806L237.473 121.467L279.704 162.806ZM347.905 126.351L288.294 68.001L356.296 0H474.257L347.905 126.351ZM186.406 66.6797L126.47 125.349L1.12109 0H119.727L186.406 66.6797Z" fill="#0B0B0B"/>
<path d="M176.48 296.803L118.284 355H0L132.319 222.68L176.48 296.803ZM473.136 355H354.853L296.788 296.936L340.95 222.813L473.136 355ZM279.703 162.806L237.472 204.144L195.24 162.806L237.472 121.467L279.703 162.806Z" fill="#15BB81"/>
<path d="M352.052 161.197L236.673 354.853L121.297 161.197L236.674 48.2598L352.052 161.197ZM163.789 162.806L237.472 234.93L311.153 162.806L237.472 90.6816L163.789 162.806Z" fill="#1A6F52"/>
</svg>
